<svg width="24" height="24" viewBox="0 0 24 24" fill="none" xmlns="http://www.w3.org/2000/svg">
  <path fill-rule="evenodd" clip-rule="evenodd" d="M15 12A3 3 0 1 0 9 12A3 3 0 1 0 15 12ZM13.5 12A1.5 1.5 0 1 0 10.5 12A1.5 1.5 0 1 0 13.5 12Z" fill="currentColor"/>
  <path fill-rule="evenodd" clip-rule="evenodd" d="M20 12C20 13 16.2859 18 12 18C7.71443 18 4 13 4 12C4 11 7.71443 6 12 6C16.2859 6 20 11 20 12ZM18.1131 11.4852C18.2536 11.6915 18.3572 11.8655 18.4278 12C18.3572 12.1345 18.2536 12.3085 18.1131 12.5148C17.7609 13.0318 17.2344 13.6674 16.5804 14.2815C15.2293 15.5503 13.5833 16.5 12 16.5C10.4169 16.5 8.77088 15.5503 7.41971 14.2815C6.76564 13.6673 6.23918 13.0317 5.88696 12.5148C5.74639 12.3085 5.64279 12.1345 5.5722 12C5.64279 11.8655 5.74639 11.6915 5.88696 11.4852C6.23918 10.9683 6.76564 10.3327 7.41971 9.71849C8.77088 8.44974 10.4169 7.5 12 7.5C13.5833 7.5 15.2293 8.44972 16.5804 9.71846C17.2344 10.3326 17.7609 10.9682 18.1131 11.4852Z" fill="currentColor"/>
</svg>
