<svg width="24" height="24" viewBox="0 0 24 24" fill="none" xmlns="http://www.w3.org/2000/svg">
  <path fill-rule="evenodd" clip-rule="evenodd" d="M15.5 11C15.5 13.4853 13.4853 15.5 11 15.5C8.51472 15.5 6.5 13.4853 6.5 11C6.5 8.51472 8.51472 6.5 11 6.5C13.4853 6.5 15.5 8.51472 15.5 11ZM14.6792 15.7399C13.6632 16.5297 12.3865 17 11 17C7.68629 17 5 14.3137 5 11C5 7.68629 7.68629 5 11 5C14.3137 5 17 7.68629 17 11C17 12.3865 16.5297 13.6632 15.7399 14.6792L20.0303 18.9697L18.9697 20.0303L14.6792 15.7399Z" fill="currentColor"/>
</svg>
